<mxfile>
    <diagram id="74KT8LeQoiMAGFOcbMwj" name="View">
        <mxGraphModel dx="277" dy="830" grid="0" gridSize="10" guides="1" tooltips="1" connect="1" arrows="1" fold="1" page="0" pageScale="1" pageWidth="1169" pageHeight="827" background="none" math="0" shadow="0">
            <root>
                <mxCell id="0"/>
                <mxCell id="1" parent="0" visible="0"/>
                <mxCell id="91" value="View" parent="0"/>
                <mxCell id="56" value="View" style="swimlane;fontStyle=1;align=center;verticalAlign=top;childLayout=stackLayout;horizontal=1;startSize=26;horizontalStack=0;resizeParent=1;resizeParentMax=0;resizeLast=0;collapsible=1;marginBottom=0;rounded=0;sketch=0;strokeColor=#909090;fillColor=#F5AB50;fontColor=#1A1A1A;" vertex="1" parent="91">
                    <mxGeometry x="571" y="47" width="228" height="164" as="geometry"/>
                </mxCell>
                <mxCell id="76" value="# protected: type" style="text;fillColor=#f0a30a;align=left;verticalAlign=top;spacingLeft=4;spacingRight=4;overflow=hidden;rotatable=0;points=[[0,0.5],[1,0.5]];portConstraint=eastwest;strokeColor=#BD7000;fontColor=#000000;" vertex="1" parent="56">
                    <mxGeometry y="26" width="228" height="26" as="geometry"/>
                </mxCell>
                <mxCell id="75" value="# bars: Bars" style="text;fillColor=#f0a30a;align=left;verticalAlign=top;spacingLeft=4;spacingRight=4;overflow=hidden;rotatable=0;points=[[0,0.5],[1,0.5]];portConstraint=eastwest;strokeColor=#BD7000;fontColor=#000000;" vertex="1" parent="56">
                    <mxGeometry y="52" width="228" height="26" as="geometry"/>
                </mxCell>
                <mxCell id="57" value="- private: type" style="text;fillColor=#f0a30a;align=left;verticalAlign=top;spacingLeft=4;spacingRight=4;overflow=hidden;rotatable=0;points=[[0,0.5],[1,0.5]];portConstraint=eastwest;strokeColor=#BD7000;fontColor=#000000;" vertex="1" parent="56">
                    <mxGeometry y="78" width="228" height="26" as="geometry"/>
                </mxCell>
                <mxCell id="64" value="+ public: type" style="text;fillColor=#f0a30a;align=left;verticalAlign=top;spacingLeft=4;spacingRight=4;overflow=hidden;rotatable=0;points=[[0,0.5],[1,0.5]];portConstraint=eastwest;strokeColor=#BD7000;fontColor=#000000;" vertex="1" parent="56">
                    <mxGeometry y="104" width="228" height="26" as="geometry"/>
                </mxCell>
                <mxCell id="58" value="" style="line;strokeWidth=1;align=left;verticalAlign=middle;spacingTop=-1;spacingLeft=3;spacingRight=3;rotatable=0;labelPosition=right;points=[];portConstraint=eastwest;fillColor=#F0A30A;strokeColor=#FFFFFF;" vertex="1" parent="56">
                    <mxGeometry y="130" width="228" height="8" as="geometry"/>
                </mxCell>
                <mxCell id="59" value="# protected(type): type" style="text;align=left;verticalAlign=top;spacingLeft=4;spacingRight=4;overflow=hidden;rotatable=0;points=[[0,0.5],[1,0.5]];portConstraint=eastwest;strokeColor=#BD7000;fontColor=#000000;fillColor=#F0A30A;" vertex="1" parent="56">
                    <mxGeometry y="138" width="228" height="26" as="geometry"/>
                </mxCell>
                <mxCell id="92" value="Bars" parent="0"/>
                <mxCell id="88" value="" style="endArrow=diamondThin;endFill=1;endSize=24;html=1;strokeColor=#BD7000;fontColor=#000000;entryX=1;entryY=0.5;entryDx=0;entryDy=0;exitX=0.5;exitY=0;exitDx=0;exitDy=0;edgeStyle=orthogonalEdgeStyle;fillColor=#f0a30a;" edge="1" parent="92" source="69" target="75">
                    <mxGeometry width="160" relative="1" as="geometry">
                        <mxPoint x="1019" y="103" as="sourcePoint"/>
                        <mxPoint x="1179" y="103" as="targetPoint"/>
                    </mxGeometry>
                </mxCell>
                <mxCell id="90" value="&lt;font color=&quot;#ffffff&quot;&gt;+ 1, 2&lt;/font&gt;" style="edgeLabel;html=1;align=center;verticalAlign=middle;resizable=0;points=[];fontColor=#000000;" vertex="1" connectable="0" parent="88">
                    <mxGeometry x="0.8772" y="2" relative="1" as="geometry">
                        <mxPoint x="8.5" y="11" as="offset"/>
                    </mxGeometry>
                </mxCell>
                <mxCell id="69" value="Bar" style="swimlane;fontStyle=1;align=center;verticalAlign=top;childLayout=stackLayout;horizontal=1;startSize=26;horizontalStack=0;resizeParent=1;resizeParentMax=0;resizeLast=0;collapsible=1;marginBottom=0;rounded=0;sketch=0;strokeColor=#909090;fillColor=#F5AB50;fontColor=#1A1A1A;" vertex="1" parent="92">
                    <mxGeometry x="1044" y="-58" width="479" height="294" as="geometry"/>
                </mxCell>
                <mxCell id="101" value="- mainElement: HTMLElement" style="text;fillColor=#f0a30a;align=left;verticalAlign=top;spacingLeft=4;spacingRight=4;overflow=hidden;rotatable=0;points=[[0,0.5],[1,0.5]];portConstraint=eastwest;strokeColor=#BD7000;fontColor=#000000;" vertex="1" parent="69">
                    <mxGeometry y="26" width="479" height="26" as="geometry"/>
                </mxCell>
                <mxCell id="83" value="- start: number" style="text;fillColor=#f0a30a;align=left;verticalAlign=top;spacingLeft=4;spacingRight=4;overflow=hidden;rotatable=0;points=[[0,0.5],[1,0.5]];portConstraint=eastwest;strokeColor=#BD7000;fontColor=#000000;" vertex="1" parent="69">
                    <mxGeometry y="52" width="479" height="26" as="geometry"/>
                </mxCell>
                <mxCell id="77" value="- cssVarStart: string" style="text;fillColor=#f0a30a;align=left;verticalAlign=top;spacingLeft=4;spacingRight=4;overflow=hidden;rotatable=0;points=[[0,0.5],[1,0.5]];portConstraint=eastwest;strokeColor=#BD7000;fontColor=#000000;" vertex="1" parent="69">
                    <mxGeometry y="78" width="479" height="26" as="geometry"/>
                </mxCell>
                <mxCell id="71" value="- end: number" style="text;fillColor=#f0a30a;align=left;verticalAlign=top;spacingLeft=4;spacingRight=4;overflow=hidden;rotatable=0;points=[[0,0.5],[1,0.5]];portConstraint=eastwest;strokeColor=#BD7000;fontColor=#000000;" vertex="1" parent="69">
                    <mxGeometry y="104" width="479" height="26" as="geometry"/>
                </mxCell>
                <mxCell id="84" value="- cssVarEnd: string" style="text;fillColor=#f0a30a;align=left;verticalAlign=top;spacingLeft=4;spacingRight=4;overflow=hidden;rotatable=0;points=[[0,0.5],[1,0.5]];portConstraint=eastwest;strokeColor=#BD7000;fontColor=#000000;" vertex="1" parent="69">
                    <mxGeometry y="130" width="479" height="26" as="geometry"/>
                </mxCell>
                <mxCell id="73" value="" style="line;strokeWidth=1;align=left;verticalAlign=middle;spacingTop=-1;spacingLeft=3;spacingRight=3;rotatable=0;labelPosition=right;points=[];portConstraint=eastwest;fillColor=#F0A30A;strokeColor=#FFFFFF;" vertex="1" parent="69">
                    <mxGeometry y="156" width="479" height="8" as="geometry"/>
                </mxCell>
                <mxCell id="78" value="+ constructor(mainElement: HTMLElement, nameCssVarStart, nameCssVarEnd: string)" style="text;align=left;verticalAlign=top;spacingLeft=4;spacingRight=4;overflow=hidden;rotatable=0;points=[[0,0.5],[1,0.5]];portConstraint=eastwest;strokeColor=#BD7000;fontColor=#000000;fillColor=#F0A30A;" vertex="1" parent="69">
                    <mxGeometry y="164" width="479" height="26" as="geometry"/>
                </mxCell>
                <mxCell id="79" value="+ get start(): number" style="text;align=left;verticalAlign=top;spacingLeft=4;spacingRight=4;overflow=hidden;rotatable=0;points=[[0,0.5],[1,0.5]];portConstraint=eastwest;strokeColor=#BD7000;fontColor=#000000;fillColor=#F0A30A;" vertex="1" parent="69">
                    <mxGeometry y="190" width="479" height="26" as="geometry"/>
                </mxCell>
                <mxCell id="80" value="+ set start(x): number" style="text;align=left;verticalAlign=top;spacingLeft=4;spacingRight=4;overflow=hidden;rotatable=0;points=[[0,0.5],[1,0.5]];portConstraint=eastwest;strokeColor=#BD7000;fontColor=#000000;fillColor=#F0A30A;" vertex="1" parent="69">
                    <mxGeometry y="216" width="479" height="26" as="geometry"/>
                </mxCell>
                <mxCell id="82" value="+ get end(): number" style="text;align=left;verticalAlign=top;spacingLeft=4;spacingRight=4;overflow=hidden;rotatable=0;points=[[0,0.5],[1,0.5]];portConstraint=eastwest;strokeColor=#BD7000;fontColor=#000000;fillColor=#F0A30A;" vertex="1" parent="69">
                    <mxGeometry y="242" width="479" height="26" as="geometry"/>
                </mxCell>
                <mxCell id="81" value="+ set end(x): number" style="text;align=left;verticalAlign=top;spacingLeft=4;spacingRight=4;overflow=hidden;rotatable=0;points=[[0,0.5],[1,0.5]];portConstraint=eastwest;strokeColor=#BD7000;fontColor=#000000;fillColor=#F0A30A;" vertex="1" parent="69">
                    <mxGeometry y="268" width="479" height="26" as="geometry"/>
                </mxCell>
                <mxCell id="93" value="Bars implementation" parent="0"/>
                <mxCell id="103" value="" style="group" vertex="1" connectable="0" parent="93">
                    <mxGeometry x="1672" y="-33" width="417" height="285" as="geometry"/>
                </mxCell>
                <mxCell id="102" value="set start" style="shape=umlFrame;whiteSpace=wrap;html=1;rounded=0;sketch=0;strokeColor=#FFFFFF;fillColor=#F0A30A;gradientColor=none;fontColor=#000000;" vertex="1" parent="103">
                    <mxGeometry width="417" height="285" as="geometry"/>
                </mxCell>
                <mxCell id="94" value="" style="ellipse;html=1;shape=startState;fillColor=#000000;strokeColor=#ff0000;rounded=0;sketch=0;fontColor=#000000;" vertex="1" parent="103">
                    <mxGeometry x="192.5" y="17" width="30" height="30" as="geometry"/>
                </mxCell>
                <mxCell id="95" value="" style="edgeStyle=orthogonalEdgeStyle;html=1;verticalAlign=bottom;endArrow=open;endSize=8;strokeColor=#ff0000;fontColor=#000000;entryX=0.5;entryY=0;entryDx=0;entryDy=0;" edge="1" source="94" parent="103" target="96">
                    <mxGeometry relative="1" as="geometry">
                        <mxPoint x="207.5" y="107" as="targetPoint"/>
                    </mxGeometry>
                </mxCell>
                <mxCell id="96" value="newPosition: number" style="html=1;rounded=0;sketch=0;strokeColor=#FFFFFF;fillColor=#F0A30A;gradientColor=none;fontColor=#000000;" vertex="1" parent="103">
                    <mxGeometry x="144.5" y="75" width="126" height="25" as="geometry"/>
                </mxCell>
                <mxCell id="97" value="this.start = newPosition;&lt;br&gt;this.&lt;span style=&quot;text-align: left&quot;&gt;mainElement.style&lt;br&gt;.setProperty(&lt;/span&gt;&lt;span style=&quot;text-align: left&quot;&gt;cssVarStart,&amp;nbsp;&lt;/span&gt;this.start&lt;span style=&quot;text-align: left&quot;&gt;)&lt;/span&gt;" style="rounded=1;whiteSpace=wrap;html=1;arcSize=40;fontColor=#000000;fillColor=#ffffc0;strokeColor=#ff0000;sketch=0;" vertex="1" parent="103">
                    <mxGeometry x="16" y="129" width="383" height="75" as="geometry"/>
                </mxCell>
                <mxCell id="98" value="" style="edgeStyle=orthogonalEdgeStyle;html=1;verticalAlign=bottom;endArrow=open;endSize=8;strokeColor=#ff0000;fontColor=#000000;" edge="1" source="97" parent="103" target="100">
                    <mxGeometry relative="1" as="geometry">
                        <mxPoint x="293.5" y="403" as="targetPoint"/>
                    </mxGeometry>
                </mxCell>
                <mxCell id="99" value="" style="edgeStyle=orthogonalEdgeStyle;html=1;verticalAlign=bottom;endArrow=open;endSize=8;strokeColor=#ff0000;fontColor=#000000;exitX=0.5;exitY=1;exitDx=0;exitDy=0;entryX=0.5;entryY=0;entryDx=0;entryDy=0;" edge="1" parent="103" source="96" target="97">
                    <mxGeometry relative="1" as="geometry">
                        <mxPoint x="303.5" y="413" as="targetPoint"/>
                        <mxPoint x="303.5" y="353" as="sourcePoint"/>
                    </mxGeometry>
                </mxCell>
                <mxCell id="100" value="" style="ellipse;html=1;shape=endState;fillColor=#000000;strokeColor=#ff0000;" vertex="1" parent="103">
                    <mxGeometry x="192.5" y="237" width="30" height="30" as="geometry"/>
                </mxCell>
                <mxCell id="106" value="" style="endArrow=block;dashed=1;endFill=0;endSize=12;html=1;strokeColor=#BD7000;fontColor=#000000;exitX=1;exitY=0.5;exitDx=0;exitDy=0;fillColor=#f0a30a;" edge="1" parent="93" source="80" target="102">
                    <mxGeometry width="160" relative="1" as="geometry">
                        <mxPoint x="1612" y="55" as="sourcePoint"/>
                        <mxPoint x="1772" y="55" as="targetPoint"/>
                    </mxGeometry>
                </mxCell>
            </root>
        </mxGraphModel>
    </diagram>
</mxfile>
